<mxfile host="Electron" modified="2023-05-26T13:40:56.928Z" agent="Mozilla/5.0 (Macintosh; Intel Mac OS X 10_15_7) AppleWebKit/537.36 (KHTML, like Gecko) draw.io/21.2.8 Chrome/112.0.5615.165 Electron/24.2.0 Safari/537.36" etag="e7v7WwzfbIl6qNCuWizT" version="21.2.8" type="device">
  <diagram name="Page-1" id="WC7kHt2ogqAR5OKgocwp">
    <mxGraphModel dx="1114" dy="894" grid="1" gridSize="10" guides="1" tooltips="1" connect="1" arrows="1" fold="1" page="1" pageScale="1" pageWidth="850" pageHeight="1100" math="0" shadow="0">
      <root>
        <mxCell id="0" />
        <mxCell id="1" parent="0" />
        <mxCell id="KDGc49Kq7JbprpHp5rzq-1" value="Caller" style="rounded=1;whiteSpace=wrap;html=1;fontFamily=SF Mono;arcSize=5;fillColor=#f5f5f5;fontColor=#333333;strokeColor=#666666;" parent="1" vertex="1">
          <mxGeometry x="80" y="160" width="120" height="60" as="geometry" />
        </mxCell>
        <mxCell id="KDGc49Kq7JbprpHp5rzq-2" value="Callee" style="rounded=1;whiteSpace=wrap;html=1;fontFamily=SF Mono;arcSize=5;fillColor=#f5f5f5;strokeColor=#666666;fontColor=#333333;" parent="1" vertex="1">
          <mxGeometry x="560" y="160" width="120" height="60" as="geometry" />
        </mxCell>
        <mxCell id="KDGc49Kq7JbprpHp5rzq-3" value="Promise" style="rounded=1;whiteSpace=wrap;html=1;fontFamily=SF Mono;fillColor=#dae8fc;strokeColor=#6c8ebf;arcSize=5;" parent="1" vertex="1">
          <mxGeometry x="320" y="160" width="120" height="60" as="geometry" />
        </mxCell>
        <mxCell id="KDGc49Kq7JbprpHp5rzq-4" value="" style="endArrow=classic;html=1;rounded=0;exitX=0;exitY=0.25;exitDx=0;exitDy=0;entryX=1;entryY=0.25;entryDx=0;entryDy=0;fillColor=#d5e8d4;strokeColor=#82b366;" parent="1" source="KDGc49Kq7JbprpHp5rzq-2" target="KDGc49Kq7JbprpHp5rzq-3" edge="1">
          <mxGeometry width="50" height="50" relative="1" as="geometry">
            <mxPoint x="560" y="530" as="sourcePoint" />
            <mxPoint x="610" y="480" as="targetPoint" />
          </mxGeometry>
        </mxCell>
        <mxCell id="KDGc49Kq7JbprpHp5rzq-5" value="" style="endArrow=classic;html=1;rounded=0;exitX=0;exitY=0.75;exitDx=0;exitDy=0;entryX=1;entryY=0.75;entryDx=0;entryDy=0;fillColor=#f8cecc;strokeColor=#b85450;" parent="1" source="KDGc49Kq7JbprpHp5rzq-2" target="KDGc49Kq7JbprpHp5rzq-3" edge="1">
          <mxGeometry width="50" height="50" relative="1" as="geometry">
            <mxPoint x="400" y="480" as="sourcePoint" />
            <mxPoint x="450" y="430" as="targetPoint" />
          </mxGeometry>
        </mxCell>
        <mxCell id="KDGc49Kq7JbprpHp5rzq-7" value="resolve" style="text;html=1;strokeColor=none;fillColor=none;align=center;verticalAlign=middle;whiteSpace=wrap;rounded=0;fontFamily=SF Mono;" parent="1" vertex="1">
          <mxGeometry x="470" y="150" width="60" height="30" as="geometry" />
        </mxCell>
        <mxCell id="KDGc49Kq7JbprpHp5rzq-8" value="reject" style="text;html=1;strokeColor=none;fillColor=none;align=center;verticalAlign=middle;whiteSpace=wrap;rounded=0;fontFamily=SF Mono;" parent="1" vertex="1">
          <mxGeometry x="470" y="200" width="60" height="30" as="geometry" />
        </mxCell>
        <mxCell id="KDGc49Kq7JbprpHp5rzq-9" value="Promise" style="rounded=1;whiteSpace=wrap;html=1;fontFamily=SF Mono;fillColor=#E6FFCC;strokeColor=#82b366;arcSize=5;dashed=1;" parent="1" vertex="1">
          <mxGeometry x="320" y="280" width="120" height="60" as="geometry" />
        </mxCell>
        <mxCell id="KDGc49Kq7JbprpHp5rzq-10" value="unresolved" style="text;html=1;strokeColor=none;fillColor=none;align=center;verticalAlign=middle;whiteSpace=wrap;rounded=0;fontFamily=SF Mono;" parent="1" vertex="1">
          <mxGeometry x="340" y="120" width="80" height="30" as="geometry" />
        </mxCell>
        <mxCell id="KDGc49Kq7JbprpHp5rzq-11" value="resolved" style="text;html=1;strokeColor=none;fillColor=none;align=center;verticalAlign=middle;whiteSpace=wrap;rounded=0;fontFamily=SF Mono;" parent="1" vertex="1">
          <mxGeometry x="340" y="340" width="80" height="30" as="geometry" />
        </mxCell>
        <mxCell id="KDGc49Kq7JbprpHp5rzq-12" value="" style="endArrow=classic;html=1;rounded=0;exitX=0.5;exitY=1;exitDx=0;exitDy=0;entryX=0.5;entryY=0;entryDx=0;entryDy=0;" parent="1" source="KDGc49Kq7JbprpHp5rzq-3" target="KDGc49Kq7JbprpHp5rzq-9" edge="1">
          <mxGeometry width="50" height="50" relative="1" as="geometry">
            <mxPoint x="390" y="330" as="sourcePoint" />
            <mxPoint x="440" y="280" as="targetPoint" />
          </mxGeometry>
        </mxCell>
        <mxCell id="VEqlzIc2wXHA7lHMh1GU-1" value="" style="endArrow=classic;html=1;rounded=0;exitX=0;exitY=0.5;exitDx=0;exitDy=0;dashed=1;" edge="1" parent="1" source="KDGc49Kq7JbprpHp5rzq-3" target="KDGc49Kq7JbprpHp5rzq-1">
          <mxGeometry width="50" height="50" relative="1" as="geometry">
            <mxPoint x="400" y="480" as="sourcePoint" />
            <mxPoint x="450" y="430" as="targetPoint" />
          </mxGeometry>
        </mxCell>
        <mxCell id="VEqlzIc2wXHA7lHMh1GU-3" value="&lt;font style=&quot;font-size: 16px;&quot;&gt;?&lt;/font&gt;" style="text;html=1;strokeColor=none;fillColor=none;align=center;verticalAlign=middle;whiteSpace=wrap;rounded=0;fontFamily=SF Mono;" vertex="1" parent="1">
          <mxGeometry x="230" y="160" width="60" height="30" as="geometry" />
        </mxCell>
      </root>
    </mxGraphModel>
  </diagram>
</mxfile>
